<svg width="250" height="51" viewBox="0 0 250 51" fill="none" xmlns="http://www.w3.org/2000/svg">
<path fill-rule="evenodd" clip-rule="evenodd" d="M37.6161 16.3306C37.9897 16.331 38.354 16.2147 38.6581 15.9981C38.9622 15.7816 39.1908 15.4756 39.312 15.1229C39.4332 14.7702 39.4409 14.3885 39.334 14.0312C39.2272 13.674 39.011 13.359 38.7159 13.1304L22.5947 0.615518C22.2803 0.37138 21.8933 0.238831 21.4949 0.238831C21.0965 0.238831 20.7095 0.37138 20.3951 0.615518L4.27391 13.1304C3.97879 13.359 3.76267 13.674 3.65578 14.0312C3.54889 14.3885 3.55659 14.7702 3.6778 15.1229C3.79901 15.4756 4.02765 15.7816 4.33175 15.9981C4.63584 16.2147 5.00017 16.331 5.37374 16.3306L12.5208 16.3306C12.3202 25.9474 10.4913 30.5672 8.50303 32.8878C6.61327 35.094 4.39034 35.498 2.06173 35.9182L1.46166 36.0272C1.03229 36.1075 0.647088 36.3415 0.378529 36.6854C0.10997 37.0293 -0.0234394 37.4593 0.00341221 37.8945C0.0302639 38.3296 0.21552 38.74 0.524326 39.0484C0.833131 39.3568 1.2442 39.5419 1.6802 39.569C6.60253 39.8747 13.7353 39.4152 19.7019 35.945C25.493 32.5767 29.946 26.5106 30.4117 16.3306L37.6161 16.3306Z" fill="#01B4C2"/>
<path d="M59.9596 23.3556H50.3383L50.287 17.4546H58.0867C59.4893 17.4546 60.6096 17.3006 61.4477 16.9927C62.2859 16.6678 62.8931 16.1974 63.2694 15.5816C63.6628 14.9658 63.8595 14.1961 63.8595 13.2725C63.8595 12.212 63.6628 11.3568 63.2694 10.7068C62.876 10.0568 62.2517 9.58646 61.3964 9.29569C60.5583 8.98781 59.4722 8.83386 58.138 8.83386H53.725V39.2372H44.7195V1.88086H58.138C60.4471 1.88086 62.5082 2.09467 64.3213 2.52228C66.1344 2.93279 67.6738 3.56566 68.9395 4.42089C70.2224 5.27611 71.1973 6.3537 71.8644 7.65365C72.5315 8.93649 72.865 10.4502 72.865 12.1949C72.865 13.7172 72.5401 15.1454 71.8901 16.4796C71.2401 17.8138 70.154 18.8999 68.6317 19.738C67.1265 20.559 65.0654 20.9867 62.4484 21.0209L59.9596 23.3556ZM59.6005 39.2372H48.1575L51.2363 32.3099H59.6005C60.832 32.3099 61.8155 32.1217 62.551 31.7454C63.3036 31.352 63.8424 30.8389 64.1674 30.206C64.5095 29.556 64.6805 28.8376 64.6805 28.0508C64.6805 27.093 64.518 26.2634 64.193 25.5621C63.8851 24.8608 63.3891 24.322 62.7049 23.9457C62.0207 23.5523 61.1057 23.3556 59.9596 23.3556H52.3909L52.4422 17.4546H61.4991L63.6029 19.815C66.1002 19.7124 68.0758 20.063 69.5297 20.8669C71.0006 21.6708 72.0526 22.7313 72.6854 24.0484C73.3183 25.3654 73.6347 26.7423 73.6347 28.1791C73.6347 30.6251 73.1045 32.6691 72.044 34.3111C71.0006 35.9531 69.4356 37.1847 67.3488 38.0057C65.2621 38.8267 62.6793 39.2372 59.6005 39.2372Z" fill="black"/>
<path d="M87.7462 11.6048V39.3655H79.0742V11.6048H87.7462ZM78.561 4.44655C78.561 3.21502 79.0058 2.20586 79.8952 1.41905C80.7846 0.632236 81.9392 0.238831 83.3589 0.238831C84.7785 0.238831 85.9331 0.632236 86.8225 1.41905C87.712 2.20586 88.1567 3.21502 88.1567 4.44655C88.1567 5.67808 87.712 6.68725 86.8225 7.47406C85.9331 8.26087 84.7785 8.65428 83.3589 8.65428C81.9392 8.65428 80.7846 8.26087 79.8952 7.47406C79.0058 6.68725 78.561 5.67808 78.561 4.44655Z" fill="black"/>
<path d="M101.755 0.238831V39.6477H93.0825V0.238831H101.755Z" fill="black"/>
<path d="M115.353 0.238831V39.6477H106.681V0.238831H115.353Z" fill="black"/>
<path d="M129.464 11.6048V39.3655H120.792V11.6048H129.464ZM120.279 4.44655C120.279 3.21502 120.724 2.20586 121.613 1.41905C122.502 0.632236 123.657 0.238831 125.077 0.238831C126.496 0.238831 127.651 0.632236 128.54 1.41905C129.43 2.20586 129.874 3.21502 129.874 4.44655C129.874 5.67808 129.43 6.68725 128.54 7.47406C127.651 8.26087 126.496 8.65428 125.077 8.65428C123.657 8.65428 122.502 8.26087 121.613 7.47406C120.724 6.68725 120.279 5.67808 120.279 4.44655Z" fill="black"/>
<path d="M143.447 18.1729V40.0069H134.801V12.2462H142.908L143.447 18.1729ZM142.421 25.1772L140.394 25.2286C140.394 23.1076 140.651 21.2175 141.164 19.5584C141.677 17.8822 142.404 16.4625 143.345 15.2994C144.285 14.1363 145.406 13.2554 146.706 12.6567C148.023 12.0409 149.485 11.7331 151.093 11.7331C152.376 11.7331 153.547 11.9212 154.608 12.2975C155.685 12.6738 156.609 13.281 157.379 14.1191C158.166 14.9573 158.764 16.0691 159.175 17.4545C159.602 18.8229 159.816 20.5163 159.816 22.5346V40.0069H151.119V22.5089C151.119 21.3971 150.965 20.5505 150.657 19.9689C150.349 19.3702 149.904 18.9597 149.323 18.7374C148.741 18.515 148.031 18.4038 147.193 18.4038C146.304 18.4038 145.551 18.5749 144.935 18.917C144.319 19.2591 143.823 19.738 143.447 20.3538C143.088 20.9524 142.823 21.6623 142.652 22.4833C142.498 23.3043 142.421 24.2023 142.421 25.1772Z" fill="black"/>
<path d="M183.472 12.2462H191.323V38.9293C191.323 41.495 190.733 43.6673 189.553 45.4462C188.373 47.2421 186.722 48.6019 184.601 49.5256C182.497 50.4663 180.034 50.9367 177.212 50.9367C175.963 50.9367 174.689 50.7742 173.389 50.4492C172.089 50.1414 170.875 49.6795 169.746 49.0638C168.617 48.448 167.668 47.6869 166.898 46.7803L170.515 41.7003C171.217 42.4871 172.098 43.1541 173.158 43.7015C174.219 44.2659 175.467 44.5482 176.904 44.5482C178.153 44.5482 179.196 44.3258 180.034 43.8811C180.889 43.4364 181.539 42.7864 181.984 41.9312C182.429 41.093 182.651 40.0753 182.651 38.878V18.8144L183.472 12.2462ZM165.025 26.4601V25.9213C165.025 23.8174 165.281 21.9017 165.795 20.1742C166.325 18.4295 167.077 16.9328 168.052 15.6842C169.044 14.4185 170.242 13.4435 171.644 12.7593C173.047 12.0752 174.629 11.7331 176.391 11.7331C178.289 11.7331 179.846 12.1008 181.06 12.8363C182.292 13.5547 183.275 14.5639 184.011 15.8638C184.764 17.1638 185.345 18.6861 185.756 20.4307C186.183 22.1583 186.542 24.0227 186.833 26.0239V26.6653C186.542 28.5468 186.14 30.3257 185.627 32.002C185.131 33.6611 184.481 35.1321 183.677 36.4149C182.874 37.6978 181.864 38.707 180.65 39.4425C179.453 40.1608 178.016 40.52 176.34 40.52C174.595 40.52 173.021 40.1694 171.619 39.4681C170.233 38.7668 169.044 37.7833 168.052 36.5176C167.077 35.2518 166.325 33.7637 165.795 32.0533C165.281 30.3428 165.025 28.4784 165.025 26.4601ZM173.671 25.9213V26.4601C173.671 27.5035 173.765 28.4699 173.953 29.3593C174.159 30.2488 174.467 31.0356 174.877 31.7197C175.288 32.3868 175.792 32.9085 176.391 33.2848C177.007 33.6611 177.725 33.8493 178.546 33.8493C179.795 33.8493 180.804 33.5841 181.574 33.0539C182.343 32.5237 182.899 31.7711 183.241 30.7961C183.583 29.8211 183.729 28.6751 183.677 27.3581V25.3312C183.712 24.2023 183.635 23.2102 183.447 22.355C183.258 21.4827 182.959 20.7557 182.549 20.1742C182.155 19.5926 181.625 19.1564 180.958 18.8657C180.308 18.5578 179.521 18.4038 178.597 18.4038C177.793 18.4038 177.084 18.592 176.468 18.9683C175.852 19.3446 175.339 19.8748 174.928 20.559C174.518 21.2261 174.202 22.0215 173.979 22.9451C173.774 23.8516 173.671 24.8437 173.671 25.9213Z" fill="black"/>
<path d="M241.328 32.746V11.7331H250V39.4938H241.893L241.328 32.746ZM242.149 27.1015L244.407 27.0502C244.407 28.9146 244.185 30.6422 243.74 32.2329C243.295 33.8065 242.637 35.1749 241.764 36.338C240.909 37.5011 239.849 38.4076 238.583 39.0576C237.334 39.6905 235.889 40.0069 234.247 40.0069C232.878 40.0069 231.621 39.8188 230.475 39.4425C229.346 39.049 228.371 38.4418 227.55 37.6208C226.729 36.7827 226.088 35.7137 225.626 34.4137C225.181 33.0967 224.959 31.523 224.959 29.6929V11.7331H233.605V29.7442C233.605 30.3599 233.682 30.8902 233.836 31.3349C233.99 31.7796 234.213 32.1559 234.503 32.4638C234.794 32.7546 235.153 32.9769 235.581 33.1309C236.026 33.2677 236.53 33.3361 237.095 33.3361C238.395 33.3361 239.412 33.0625 240.148 32.5151C240.883 31.9678 241.396 31.2237 241.687 30.283C241.995 29.3422 242.149 28.2817 242.149 27.1015Z" fill="black"/>
<path d="M201.021 1.88086L207.897 18.096L214.799 1.88086H224.497L212.49 25.8187V39.2372H203.33V25.8187L191.297 1.88086H201.021Z" fill="black"/>
</svg>
